<svg width="48" height="48" viewBox="0 0 48 48" fill="none" xmlns="http://www.w3.org/2000/svg">
<path d="M48 24C48 37.2548 37.2548 48 24 48C10.7452 48 0 37.2548 0 24C0 10.7452 10.7452 0 24 0C37.2548 0 48 10.7452 48 24Z" fill="#304CFA"/>
<path d="M32.4949 22.1996C30.7752 22.2037 29.0976 21.6674 27.6992 20.6664V27.6477C27.6987 28.9407 27.3035 30.2027 26.5664 31.265C25.8293 32.3274 24.7855 33.1393 23.5745 33.5924C22.3634 34.0454 21.0429 34.118 19.7896 33.8003C18.5362 33.4826 17.4097 32.7899 16.5607 31.8147C15.7116 30.8395 15.1806 29.6283 15.0385 28.3431C14.8964 27.058 15.15 25.76 15.7655 24.6229C16.381 23.4858 17.3289 22.5637 18.4826 21.9798C19.6363 21.396 20.9407 21.1783 22.2215 21.3559V24.8672C21.6354 24.6828 21.0061 24.6884 20.4233 24.8831C19.8406 25.0777 19.3343 25.4515 18.9767 25.9511C18.6191 26.4507 18.4285 27.0505 18.4321 27.6649C18.4357 28.2793 18.6334 28.8768 18.9968 29.3721C19.3603 29.8675 19.871 30.2353 20.456 30.4231C21.041 30.6109 21.6703 30.609 22.2542 30.4178C22.838 30.2265 23.3466 29.8557 23.7071 29.3582C24.0676 28.8607 24.2617 28.262 24.2617 27.6477V14H27.6992C27.6968 14.2903 27.7212 14.5802 27.7719 14.866C27.8913 15.5041 28.1397 16.1111 28.5018 16.6499C28.8639 17.1887 29.3321 17.648 29.8777 17.9996C30.6541 18.5129 31.5642 18.7865 32.4949 18.7863V22.1996Z" fill="#E9EDF5"/>
</svg>
