<svg width="33" height="33" viewBox="0 0 33 33" fill="none" xmlns="http://www.w3.org/2000/svg">
<g id="Receipt">
<g id="Vector">
<path fill-rule="evenodd" clip-rule="evenodd" d="M8.96118 13.3664C8.96118 12.8141 9.4089 12.3664 9.96118 12.3664H22.9612C23.5135 12.3664 23.9612 12.8141 23.9612 13.3664C23.9612 13.9187 23.5135 14.3664 22.9612 14.3664H9.96118C9.4089 14.3664 8.96118 13.9187 8.96118 13.3664Z" fill="white"/>
<path fill-rule="evenodd" clip-rule="evenodd" d="M8.96118 17.3664C8.96118 16.8141 9.4089 16.3664 9.96118 16.3664H22.9612C23.5135 16.3664 23.9612 16.8141 23.9612 17.3664C23.9612 17.9187 23.5135 18.3664 22.9612 18.3664H9.96118C9.4089 18.3664 8.96118 17.9187 8.96118 17.3664Z" fill="white"/>
<path fill-rule="evenodd" clip-rule="evenodd" d="M4.04697 5.95218C4.42204 5.57711 4.93075 5.36639 5.46118 5.36639H27.4612C27.9916 5.36639 28.5003 5.57711 28.8754 5.95218C29.2505 6.32725 29.4612 6.83596 29.4612 7.36639V26.3664C29.4612 26.713 29.2817 27.0348 28.9869 27.217C28.6921 27.3993 28.324 27.4158 28.014 27.2608L24.4612 25.4844L20.9084 27.2608C20.6269 27.4016 20.2955 27.4016 20.014 27.2608L16.4612 25.4844L12.9084 27.2608C12.6269 27.4016 12.2955 27.4016 12.014 27.2608L8.46118 25.4844L4.9084 27.2608C4.59841 27.4158 4.23027 27.3993 3.93545 27.217C3.64063 27.0348 3.46118 26.713 3.46118 26.3664V7.36639C3.46118 6.83596 3.6719 6.32725 4.04697 5.95218ZM27.4612 7.36639L5.46118 7.36639L5.46118 24.7484L8.01397 23.472C8.2955 23.3312 8.62687 23.3312 8.90839 23.472L12.4612 25.2484L16.014 23.472C16.2955 23.3312 16.6269 23.3312 16.9084 23.472L20.4612 25.2484L24.014 23.472C24.2955 23.3312 24.6269 23.3312 24.9084 23.472L27.4612 24.7484V7.36639Z" fill="white"/>
</g>
</g>
</svg>
