<svg width="325" height="38" viewBox="0 0 325 38" fill="none" xmlns="http://www.w3.org/2000/svg">
<path d="M0.3125 37V32.8984L3.94531 32.1953V7.70312L0.3125 7V2.875H16.4844C19.1094 2.875 21.3594 3.28125 23.2344 4.09375C25.1094 4.90625 26.5469 6.07031 27.5469 7.58594C28.5625 9.10156 29.0703 10.9219 29.0703 13.0469C29.0703 15.0469 28.5703 16.8359 27.5703 18.4141C26.5703 19.9922 25.1797 21.2344 23.3984 22.1406C21.6172 23.0469 19.5625 23.5078 17.2344 23.5234H10.7891V32.1953L14.4453 32.8984V37H0.3125ZM22.2734 37L16.5312 22.2578L22.6953 20.7344L27.6641 32.2188L30.5703 32.8984V37H22.2734ZM10.7891 18.25H16.3672C18.3359 18.25 19.8047 17.8359 20.7734 17.0078C21.7578 16.1641 22.25 14.9453 22.25 13.3516C22.25 11.7734 21.7656 10.5156 20.7969 9.57812C19.8281 8.625 18.3906 8.14844 16.4844 8.14844H10.7891V18.25ZM45.5703 37.4922C43.0703 37.4922 40.9219 36.9453 39.125 35.8516C37.3281 34.7578 35.9531 33.2422 35 31.3047C34.0469 29.3516 33.5703 27.1094 33.5703 24.5781V24.0859C33.5703 21.5703 34.0469 19.3438 35 17.4062C35.9531 15.4531 37.3203 13.9297 39.1016 12.8359C40.8984 11.7266 43.0391 11.1719 45.5234 11.1719C48.0391 11.1719 50.1875 11.7266 51.9688 12.8359C53.75 13.9297 55.1172 15.4453 56.0703 17.3828C57.0234 19.3203 57.5 21.5547 57.5 24.0859V24.5781C57.5 27.1094 57.0234 29.3516 56.0703 31.3047C55.1172 33.2422 53.75 34.7578 51.9688 35.8516C50.1875 36.9453 48.0547 37.4922 45.5703 37.4922ZM45.5703 32.2422C46.7578 32.2422 47.7266 31.9219 48.4766 31.2812C49.2266 30.6406 49.7812 29.75 50.1406 28.6094C50.5 27.4531 50.6797 26.1094 50.6797 24.5781V24.0859C50.6797 22.5859 50.5 21.2656 50.1406 20.125C49.7812 18.9688 49.2188 18.0703 48.4531 17.4297C47.7031 16.7734 46.7266 16.4453 45.5234 16.4453C44.3516 16.4453 43.3828 16.7734 42.6172 17.4297C41.8516 18.0703 41.2891 18.9688 40.9297 20.125C40.5859 21.2656 40.4141 22.5859 40.4141 24.0859V24.5781C40.4141 26.1094 40.5859 27.4531 40.9297 28.6094C41.2891 29.7656 41.8516 30.6641 42.6172 31.3047C43.3828 31.9297 44.3672 32.2422 45.5703 32.2422ZM72.7812 37.4922C70.3438 37.4922 68.2344 36.9453 66.4531 35.8516C64.6875 34.7578 63.3281 33.25 62.375 31.3281C61.4219 29.3906 60.9453 27.1797 60.9453 24.6953V23.9922C60.9453 21.4922 61.4297 19.2812 62.3984 17.3594C63.3672 15.4375 64.7344 13.9297 66.5 12.8359C68.2656 11.7266 70.3438 11.1719 72.7344 11.1719C75.0156 11.1719 76.9766 11.5312 78.6172 12.25C80.2734 12.9531 81.6172 13.7734 82.6484 14.7109L82.6016 21.9766H77.4453L76.5312 17.4531C76.1562 17.0781 75.6797 16.7734 75.1016 16.5391C74.5234 16.3047 73.9375 16.1875 73.3438 16.1875C72.0938 16.1875 71.0547 16.5 70.2266 17.125C69.4141 17.75 68.8047 18.6406 68.3984 19.7969C67.9922 20.9531 67.7891 22.3516 67.7891 23.9922V24.6953C67.7891 26.4297 68.0156 27.8594 68.4688 28.9844C68.9219 30.0938 69.5234 30.9141 70.2734 31.4453C71.0391 31.9766 71.8906 32.2422 72.8281 32.2422C74.0312 32.2422 74.9922 31.9297 75.7109 31.3047C76.4453 30.6641 76.9453 29.7656 77.2109 28.6094H83.0703L83.1406 28.75C82.875 30.5469 82.3438 32.1016 81.5469 33.4141C80.7656 34.7266 79.6562 35.7344 78.2188 36.4375C76.7969 37.1406 74.9844 37.4922 72.7812 37.4922ZM85.8359 37V32.8984L89.1406 32.1953V5.26562L85.4844 4.5625V0.4375H95.9609V32.1953L98.9141 32.8984V37H85.8359ZM101.984 37V33.1094L103.906 32.6641L103.859 32.5703L98.8438 25.75L103.203 21.2734L111.523 32.1719L114.664 32.8984V37H101.984ZM95.2344 30.0625L91.9531 26.2422L102.969 16.1641L103.016 16.0938L100.414 15.7188V11.6406H113.609V15.7656L110.328 16.5859L95.2344 30.0625ZM127.93 37.4922C125.508 37.4922 123.391 36.9609 121.578 35.8984C119.766 34.8203 118.359 33.3438 117.359 31.4688C116.375 29.5938 115.883 27.4531 115.883 25.0469V24.1094C115.883 21.5938 116.352 19.3672 117.289 17.4297C118.227 15.4766 119.547 13.9453 121.25 12.8359C122.969 11.7109 124.992 11.1562 127.32 11.1719C129.617 11.1719 131.547 11.625 133.109 12.5312C134.672 13.4375 135.859 14.7422 136.672 16.4453C137.484 18.1484 137.891 20.2109 137.891 22.6328V26.3594H122.984L122.938 26.5C123.031 27.6094 123.305 28.6016 123.758 29.4766C124.227 30.3359 124.883 31.0156 125.727 31.5156C126.57 32 127.594 32.2422 128.797 32.2422C130.047 32.2422 131.211 32.0859 132.289 31.7734C133.383 31.4453 134.445 30.9688 135.477 30.3438L137.328 34.5625C136.281 35.4062 134.961 36.1094 133.367 36.6719C131.789 37.2188 129.977 37.4922 127.93 37.4922ZM123.031 21.8359H131.492V21.2266C131.492 20.1953 131.352 19.3125 131.07 18.5781C130.805 17.8281 130.367 17.25 129.758 16.8438C129.164 16.4375 128.391 16.2344 127.438 16.2344C126.531 16.2344 125.766 16.4766 125.141 16.9609C124.516 17.4297 124.023 18.0781 123.664 18.9062C123.32 19.7344 123.086 20.6719 122.961 21.7188L123.031 21.8359ZM151.016 37.4922C148.656 37.4922 146.836 36.8438 145.555 35.5469C144.289 34.25 143.656 32.1953 143.656 29.3828V16.4453H140.164V11.6406H143.656V5.42969H150.477V11.6406H155.141V16.4453H150.477V29.3594C150.477 30.3438 150.68 31.0469 151.086 31.4688C151.508 31.8906 152.078 32.1016 152.797 32.1016C153.188 32.1016 153.594 32.0781 154.016 32.0312C154.453 31.9688 154.828 31.9062 155.141 31.8438L155.727 36.7891C155.023 36.9922 154.258 37.1562 153.43 37.2812C152.617 37.4219 151.812 37.4922 151.016 37.4922ZM158.141 37V32.8984L161.773 32.1953V7.70312L158.141 7V2.875H161.773H171.898L181.203 26.6641H181.344L190.344 2.875H204.125V7L200.469 7.70312V32.1953L204.125 32.8984V37H189.992V32.8984L193.812 32.1953V25.6562L193.93 10.2578L193.789 10.2344L183.594 36.5312H178.414L167.984 10.4453L167.844 10.4688L168.242 24.9531V32.1953L172.273 32.8984V37H158.141ZM218.82 37.4922C216.32 37.4922 214.172 36.9453 212.375 35.8516C210.578 34.7578 209.203 33.2422 208.25 31.3047C207.297 29.3516 206.82 27.1094 206.82 24.5781V24.0859C206.82 21.5703 207.297 19.3438 208.25 17.4062C209.203 15.4531 210.57 13.9297 212.352 12.8359C214.148 11.7266 216.289 11.1719 218.773 11.1719C221.289 11.1719 223.438 11.7266 225.219 12.8359C227 13.9297 228.367 15.4453 229.32 17.3828C230.273 19.3203 230.75 21.5547 230.75 24.0859V24.5781C230.75 27.1094 230.273 29.3516 229.32 31.3047C228.367 33.2422 227 34.7578 225.219 35.8516C223.438 36.9453 221.305 37.4922 218.82 37.4922ZM218.82 32.2422C220.008 32.2422 220.977 31.9219 221.727 31.2812C222.477 30.6406 223.031 29.75 223.391 28.6094C223.75 27.4531 223.93 26.1094 223.93 24.5781V24.0859C223.93 22.5859 223.75 21.2656 223.391 20.125C223.031 18.9688 222.469 18.0703 221.703 17.4297C220.953 16.7734 219.977 16.4453 218.773 16.4453C217.602 16.4453 216.633 16.7734 215.867 17.4297C215.102 18.0703 214.539 18.9688 214.18 20.125C213.836 21.2656 213.664 22.5859 213.664 24.0859V24.5781C213.664 26.1094 213.836 27.4531 214.18 28.6094C214.539 29.7656 215.102 30.6641 215.867 31.3047C216.633 31.9297 217.617 32.2422 218.82 32.2422ZM242.516 37L234.852 16.1875L232.109 15.7656V11.6406H244.414V15.7422L241.742 16.2109L245.562 27.7188L246.148 29.6875H246.289L246.945 27.7188L251.141 16.2344L248.023 15.7422V11.6406H260.305V15.7656L257.492 16.2344L249.477 37H242.516ZM262.109 37V32.8984L265.414 32.1953V16.4688L261.758 15.7656V11.6406H272.258V32.1953L275.539 32.8984V37H262.109ZM265.18 6.27344V0.4375H272.258V6.27344H265.18ZM289.977 37.4922C287.555 37.4922 285.438 36.9609 283.625 35.8984C281.812 34.8203 280.406 33.3438 279.406 31.4688C278.422 29.5938 277.93 27.4531 277.93 25.0469V24.1094C277.93 21.5938 278.398 19.3672 279.336 17.4297C280.273 15.4766 281.594 13.9453 283.297 12.8359C285.016 11.7109 287.039 11.1562 289.367 11.1719C291.664 11.1719 293.594 11.625 295.156 12.5312C296.719 13.4375 297.906 14.7422 298.719 16.4453C299.531 18.1484 299.938 20.2109 299.938 22.6328V26.3594H285.031L284.984 26.5C285.078 27.6094 285.352 28.6016 285.805 29.4766C286.273 30.3359 286.93 31.0156 287.773 31.5156C288.617 32 289.641 32.2422 290.844 32.2422C292.094 32.2422 293.258 32.0859 294.336 31.7734C295.43 31.4453 296.492 30.9688 297.523 30.3438L299.375 34.5625C298.328 35.4062 297.008 36.1094 295.414 36.6719C293.836 37.2188 292.023 37.4922 289.977 37.4922ZM285.078 21.8359H293.539V21.2266C293.539 20.1953 293.398 19.3125 293.117 18.5781C292.852 17.8281 292.414 17.25 291.805 16.8438C291.211 16.4375 290.438 16.2344 289.484 16.2344C288.578 16.2344 287.812 16.4766 287.188 16.9609C286.562 17.4297 286.07 18.0781 285.711 18.9062C285.367 19.7344 285.133 20.6719 285.008 21.7188L285.078 21.8359ZM314.023 37.4922C312.133 37.4922 310.367 37.3125 308.727 36.9531C307.102 36.5938 305.539 36.0781 304.039 35.4062L303.969 28.2344H308.727L309.641 31.8906C310.172 32.1562 310.75 32.3672 311.375 32.5234C312.016 32.6797 312.742 32.7578 313.555 32.7578C315.086 32.7578 316.164 32.5078 316.789 32.0078C317.414 31.5078 317.727 30.8828 317.727 30.1328C317.727 29.4297 317.391 28.8125 316.719 28.2812C316.062 27.7344 314.742 27.2578 312.758 26.8516C309.758 26.2266 307.547 25.2578 306.125 23.9453C304.703 22.6328 303.992 20.9531 303.992 18.9062C303.992 17.5 304.344 16.2188 305.047 15.0625C305.766 13.9062 306.852 12.9766 308.305 12.2734C309.773 11.5703 311.648 11.2188 313.93 11.2188C315.836 11.2188 317.578 11.4062 319.156 11.7812C320.75 12.1406 322.086 12.6172 323.164 13.2109L323.234 20.1484H318.5L317.773 16.8203C317.352 16.5078 316.852 16.2734 316.273 16.1172C315.711 15.9609 315.07 15.8828 314.352 15.8828C313.148 15.8828 312.227 16.125 311.586 16.6094C310.945 17.0938 310.625 17.7188 310.625 18.4844C310.625 18.9219 310.734 19.3281 310.953 19.7031C311.188 20.0781 311.641 20.4297 312.312 20.7578C312.984 21.0859 313.961 21.3984 315.242 21.6953C318.383 22.4141 320.672 23.375 322.109 24.5781C323.547 25.7656 324.266 27.4375 324.266 29.5938C324.266 31.9531 323.406 33.8594 321.688 35.3125C319.984 36.7656 317.43 37.4922 314.023 37.4922Z" fill="#FF859B"/>
</svg>
